<?xml version="1.0" standalone="no"?>
<!DOCTYPE svg PUBLIC "-//W3C//DTD SVG 20010904//EN"
 "http://www.w3.org/TR/2001/REC-SVG-20010904/DTD/svg10.dtd">
<svg version="1.0" xmlns="http://www.w3.org/2000/svg"
 width="292.000000pt" height="252.000000pt" viewBox="0 0 292.000000 252.000000"
 preserveAspectRatio="xMidYMid meet">

<g transform="translate(0.000000,252.000000) scale(0.100000,-0.100000)"
fill="#000000" stroke="none">
<path d="M1365 2117 c-170 -18 -320 -71 -404 -143 -22 -19 -57 -62 -77 -95
-30 -50 -38 -74 -42 -129 -5 -71 11 -162 32 -179 8 -7 41 -1 104 20 l92 31 0
55 c0 30 5 63 10 74 12 22 82 69 104 69 18 0 30 31 15 41 -13 8 10 60 72 167
52 92 44 48 -11 -53 -48 -89 -57 -116 -31 -101 5 3 12 19 16 34 14 62 115 215
115 174 0 -10 -52 -105 -84 -154 -10 -16 -14 -28 -8 -28 6 0 32 38 57 84 40
74 75 121 75 102 0 -10 -77 -155 -92 -173 -11 -14 -11 -16 1 -12 7 3 33 44 58
92 25 48 49 87 54 87 13 0 11 -11 -9 -45 -23 -39 -43 -85 -37 -85 3 0 16 22
30 49 25 50 45 72 45 51 0 -26 -72 -161 -83 -157 -7 2 -11 12 -9 22 2 10 -1
14 -7 10 -38 -23 16 -69 76 -64 15 1 41 -3 56 -9 41 -17 107 -73 123 -104 32
-61 9 -191 -52 -304 -35 -62 -151 -184 -176 -184 -7 0 -42 7 -77 15 -35 9 -66
13 -68 11 -3 -3 15 -10 38 -16 24 -6 55 -15 68 -21 l23 -10 -26 -32 c-44 -55
-84 -131 -95 -177 -14 -65 -25 -276 -15 -282 5 -2 55 -2 110 0 l101 4 -4 80
c-6 120 19 175 105 238 135 99 232 213 272 320 15 39 28 60 39 60 13 0 13 2 2
9 -10 6 -12 20 -7 47 14 86 18 222 7 275 -46 222 -247 361 -486 336z m142 -75
c-10 -15 -21 -35 -24 -44 -3 -10 -9 -18 -14 -18 -5 0 -16 -18 -25 -40 -9 -22
-22 -40 -30 -40 -8 0 -14 3 -14 6 0 12 42 74 50 74 4 0 10 14 14 32 9 47 35
83 49 69 8 -8 7 -18 -6 -39z m-263 -34 c-19 -35 -45 -87 -59 -115 -14 -29 -29
-53 -35 -53 -16 0 -13 9 42 123 35 73 57 107 68 107 14 0 11 -11 -16 -62z
m329 55 c3 -5 -15 -37 -39 -73 -24 -36 -44 -70 -44 -76 0 -6 -7 -18 -17 -25
-31 -27 -9 63 32 124 35 52 57 68 68 50z m-383 -17 c0 -9 -81 -160 -112 -207
-53 -82 -88 -146 -102 -186 -10 -28 -21 -39 -48 -49 l-36 -12 -15 45 c-14 44
-14 46 10 82 32 47 126 232 120 238 -3 2 -21 -29 -42 -69 -65 -127 -87 -160
-97 -150 -7 7 2 31 26 69 20 32 36 63 36 69 0 6 14 30 30 53 33 44 83 81 113
81 10 0 25 7 33 15 19 18 37 20 32 3 -5 -20 -60 -116 -95 -167 -41 -57 -126
-221 -119 -228 2 -3 23 30 44 73 22 44 61 110 86 149 25 38 46 73 46 79 0 5
11 23 24 40 13 17 26 41 30 54 4 12 14 22 22 22 8 0 14 -2 14 -4z m436 -10 c5
-14 -101 -166 -116 -166 -27 0 -16 28 46 126 34 53 59 68 70 40z m-465 -110
c-23 -47 -41 -90 -41 -95 0 -11 -39 -35 -45 -29 -2 2 10 26 27 53 18 28 45 76
61 108 45 90 43 60 -2 -37z m477 62 c-14 -18 -37 -54 -52 -80 -15 -27 -32 -48
-37 -48 -18 0 -8 18 41 80 28 34 50 66 50 71 0 5 5 9 11 9 6 0 0 -15 -13 -32z
m42 5 c0 -6 -25 -47 -72 -115 -10 -15 -18 -32 -18 -38 0 -13 -21 -9 -22 4 -1
13 93 156 103 156 5 0 9 -3 9 -7z m30 -22 c0 -6 -4 -12 -9 -15 -5 -4 -26 -35
-45 -71 -36 -64 -52 -82 -63 -71 -6 5 42 86 82 138 21 28 35 35 35 19z m35
-38 c0 -7 -18 -36 -40 -64 -22 -28 -47 -60 -56 -72 -9 -11 -21 -17 -27 -13 -8
4 1 26 25 64 19 31 42 67 50 80 15 24 48 27 48 5z m25 -29 c0 -3 -20 -30 -45
-61 -25 -30 -45 -58 -45 -62 0 -3 -9 -12 -21 -19 -19 -12 -19 -12 -8 9 32 61
119 158 119 133z m-15 -81 c-20 -27 -47 -64 -60 -85 -30 -45 -45 -55 -45 -30
0 24 107 162 126 162 9 0 2 -16 -21 -47z m23 -41 c-18 -21 -46 -55 -63 -76
-61 -79 -64 -82 -65 -65 0 9 12 32 28 52 15 20 47 64 71 98 36 50 46 58 53 45
7 -13 1 -26 -24 -54z m42 -1 c0 -5 3 -16 6 -24 5 -15 -19 -43 -125 -142 -51
-48 -62 -55 -56 -35 4 14 19 39 34 56 14 17 48 59 74 93 46 57 67 74 67 52z
m-780 -96 c0 -40 -3 -47 -26 -56 -15 -5 -29 -7 -32 -4 -7 7 39 105 50 105 4 0
8 -20 8 -45z m788 -8 c-4 -19 -198 -179 -198 -164 0 7 43 56 97 108 86 85 112
99 101 56z m2 -61 c0 -17 -14 -32 -57 -59 -32 -19 -85 -56 -118 -80 -33 -25
-61 -44 -63 -42 -7 7 215 204 231 205 4 0 7 -11 7 -24z m-13 -60 c-3 -8 -11
-34 -17 -56 -11 -40 -51 -90 -72 -90 -5 0 -28 -15 -51 -33 -44 -36 -216 -132
-222 -125 -4 4 106 81 228 160 23 15 47 31 52 36 6 5 17 6 25 4 8 -3 12 -1 7
3 -4 5 0 17 10 27 34 37 -12 18 -77 -33 -72 -56 -178 -129 -188 -129 -14 0 87
94 158 147 41 31 89 67 105 79 35 27 49 30 42 10z m-42 -156 c-8 -13 -65 -43
-71 -37 -5 5 56 47 69 47 5 0 5 -5 2 -10z m-87 -52 c-5 -14 -62 -51 -150 -98
-66 -34 -198 -119 -198 -126 0 -6 77 33 122 63 20 14 43 23 50 21 11 -4 -38
-39 -160 -115 -13 -8 -22 -17 -19 -20 3 -2 35 14 72 37 36 24 68 40 72 37 6
-7 -189 -136 -196 -130 -3 2 5 12 17 23 26 24 28 35 7 26 -21 -8 -19 7 4 21
10 6 21 24 24 40 6 27 21 39 108 88 62 34 183 107 209 126 30 21 43 24 38 7z
m23 -56 c-44 -35 -135 -87 -126 -72 9 15 137 99 150 99 6 0 -5 -12 -24 -27z
m-161 -102 c0 -11 -59 -44 -66 -37 -3 2 10 14 28 26 38 24 38 24 38 11z m74
-2 c-14 -22 -55 -51 -144 -101 -47 -27 -105 -60 -129 -73 -41 -24 -76 -24 -38
0 11 6 52 34 93 61 147 98 189 124 207 124 12 1 16 -3 11 -11z m-183 -162
c-25 -30 -162 -109 -172 -99 -11 11 13 29 111 84 66 37 82 41 61 15z m-37 -71
c-4 -8 -23 -23 -43 -32 -20 -9 -49 -25 -64 -36 -16 -10 -31 -16 -34 -13 -8 7
-10 5 61 55 62 43 90 52 80 26z m-4 -45 c0 -5 -23 -21 -51 -36 -60 -30 -63
-11 -3 23 43 25 54 28 54 13z m-15 -50 c-9 -14 -66 -43 -72 -36 -6 5 56 46 70
46 5 0 5 -5 2 -10z m-95 -19 c0 -12 -20 -25 -27 -18 -7 7 6 27 18 27 5 0 9 -4
9 -9z m100 -17 c0 -13 -47 -43 -69 -44 -17 0 -22 4 -17 16 6 15 4 15 -19 0
-20 -13 -25 -14 -25 -2 0 18 25 28 55 20 13 -3 32 -1 42 5 20 12 33 14 33 5z"/>
<path d="M1033 1917 c-52 -79 -130 -220 -138 -249 -3 -13 9 3 27 36 18 32 61
106 96 164 69 116 79 146 15 49z"/>
<path d="M585 1900 c-4 -6 7 -10 27 -10 38 -1 58 -14 75 -50 l12 -25 0 26 c1
34 -37 69 -77 69 -17 0 -34 -4 -37 -10z"/>
<path d="M503 1873 c9 -2 23 -2 30 0 6 3 -1 5 -18 5 -16 0 -22 -2 -12 -5z"/>
<path d="M1255 1860 c-4 -6 6 -10 24 -10 16 0 33 5 36 10 4 6 -6 10 -24 10
-16 0 -33 -4 -36 -10z"/>
<path d="M2210 1630 c-29 -29 -25 -35 23 -36 23 0 56 -7 74 -14 23 -10 40 -11
59 -5 45 16 39 32 -14 37 -26 3 -63 12 -82 21 -41 21 -36 21 -60 -3z"/>
<path d="M1885 1430 c10 -11 20 -20 22 -20 2 0 -1 9 -7 20 -6 11 -16 20 -22
20 -6 0 -3 -9 7 -20z"/>
<path d="M628 1303 c12 -2 30 -2 40 0 9 3 -1 5 -23 4 -22 0 -30 -2 -17 -4z"/>
<path d="M770 1303 c25 -3 54 -12 64 -21 18 -16 18 -16 7 6 -10 19 -19 22 -64
20 l-52 -1 45 -4z"/>
<path d="M1163 1293 c9 -2 25 -2 35 0 9 3 1 5 -18 5 -19 0 -27 -2 -17 -5z"/>
<path d="M1928 1193 c7 -3 16 -2 19 1 4 3 -2 6 -13 5 -11 0 -14 -3 -6 -6z"/>
<path d="M810 1112 c0 -19 40 -60 64 -64 14 -3 23 -1 20 3 -3 5 -11 9 -19 9
-7 0 -25 14 -39 31 -14 17 -26 26 -26 21z"/>
<path d="M2056 791 c-19 -20 -26 -36 -23 -52 4 -22 4 -22 6 -3 1 27 48 59 79
55 13 -1 38 -11 55 -20 27 -15 63 -20 98 -12 4 0 9 11 12 22 4 17 3 19 -6 10
-17 -17 -53 -13 -97 9 -55 28 -91 26 -124 -9z"/>
<path d="M1270 685 c-108 -46 -149 -102 -136 -189 17 -113 96 -164 214 -140
96 20 147 53 166 111 21 62 20 112 -3 166 -33 78 -130 99 -241 52z m133 -12
c7 -7 -48 -62 -155 -155 -38 -33 -68 -54 -68 -48 0 11 97 121 112 128 4 2 4
10 1 18 -3 8 3 24 12 34 21 23 44 27 25 5 -19 -23 6 -19 32 5 23 21 31 24 41
13z m37 -19 c0 -7 -77 -82 -164 -162 -115 -104 -88 -59 34 58 106 100 130 120
130 104z m-170 -17 c0 -2 -22 -23 -50 -46 -57 -48 -67 -39 -15 14 29 29 65 46
65 32z m189 -14 c-44 -53 -227 -219 -234 -211 -3 2 30 36 72 74 43 38 96 88
118 111 38 41 72 61 44 26z m31 -33 c-6 -10 -31 -36 -57 -57 -25 -21 -73 -62
-106 -91 -103 -90 -76 -47 39 63 104 100 148 130 124 85z m-296 -65 c-20 -30
-24 -31 -24 -6 0 11 8 22 18 24 9 3 18 5 20 6 1 0 -5 -10 -14 -24z m267 -47
c-17 -17 -31 -38 -31 -45 0 -13 -30 -33 -52 -33 -7 0 14 27 47 60 32 33 61 57
63 55 3 -2 -9 -19 -27 -37z m-83 -38 c-24 -27 -52 -49 -62 -50 -12 0 -16 4
-10 9 31 29 106 91 110 91 3 0 -14 -22 -38 -50z"/>
<path d="M430 664 c-25 -8 -60 -12 -77 -9 -32 6 -33 5 -21 -19 8 -19 17 -24
32 -21 12 3 43 6 70 7 50 3 50 3 52 -29 1 -18 -2 -33 -6 -33 -14 0 -40 -30
-40 -46 0 -19 41 -35 58 -22 8 7 12 6 13 -3 3 -33 17 52 18 108 1 52 -2 64
-18 73 -23 12 -24 12 -81 -6z"/>
<path d="M2030 659 c0 -18 9 -32 25 -43 36 -24 54 -19 24 7 -15 12 -32 31 -38
42 -10 19 -10 18 -11 -6z"/>
<path d="M840 443 c-27 -10 -50 -36 -50 -56 0 -18 1 -18 18 3 13 16 32 24 69
27 47 5 51 3 72 -25 20 -29 20 -31 4 -41 -16 -9 -16 -12 -3 -21 8 -6 24 -9 35
-8 30 4 33 69 5 96 -30 28 -107 41 -150 25z"/>
<path d="M2267 363 c-4 -3 -7 -13 -7 -22 0 -26 -51 -152 -64 -157 -6 -2 -47 5
-90 16 -46 11 -112 20 -156 20 -64 0 -80 -3 -95 -20 -18 -19 -18 -22 -2 -56
20 -40 22 -115 5 -132 -9 -9 -7 -12 9 -12 30 0 38 45 18 94 -25 60 -14 76 52
76 31 0 79 -6 107 -14 73 -21 148 -35 160 -30 16 6 49 91 41 104 -4 6 -3 16 3
23 5 7 15 34 22 60 12 45 11 65 -3 50z"/>
<path d="M1421 224 c-58 -7 -118 -19 -135 -26 -20 -8 -76 -13 -158 -13 -71 0
-128 -1 -128 -2 0 -1 11 -19 25 -39 21 -31 25 -33 25 -15 0 18 6 21 43 21 23
0 105 7 182 15 77 8 170 15 208 15 l67 0 0 -41 c0 -32 6 -45 29 -65 16 -13 32
-35 35 -49 4 -14 13 -25 22 -25 11 0 12 4 4 19 -13 26 -13 73 1 108 26 65 28
83 13 98 -19 18 -87 18 -233 -1z"/>
<path d="M501 179 c5 -23 20 -62 32 -88 l22 -46 113 0 c89 0 111 3 107 13 -3
8 -5 18 -5 23 0 5 -10 9 -22 9 -18 0 -20 2 -9 9 22 14 -30 25 -79 17 -31 -5
-40 -3 -40 8 0 19 22 26 80 26 63 0 120 24 120 50 0 24 -8 25 -34 5 -25 -19
-93 -19 -193 0 -107 21 -102 22 -92 -26z"/>
</g>
</svg>
